<mxfile host="65bd71144e">
    <diagram id="n-HU4fG1coUEZPLs6XPE" name="Page-1">
        <mxGraphModel dx="1094" dy="691" grid="1" gridSize="10" guides="1" tooltips="1" connect="1" arrows="1" fold="1" page="1" pageScale="1" pageWidth="1169" pageHeight="827" math="0" shadow="0">
            <root>
                <mxCell id="0"/>
                <mxCell id="1" parent="0"/>
                <mxCell id="7" value="&lt;span style=&quot;font-weight: 400;&quot;&gt;«interface»&lt;br&gt;IUserService&lt;br&gt;&lt;/span&gt;" style="swimlane;fontStyle=1;align=center;verticalAlign=middle;childLayout=stackLayout;horizontal=1;startSize=40;horizontalStack=0;resizeParent=1;resizeParentMax=0;resizeLast=0;collapsible=0;marginBottom=0;html=1;" parent="1" vertex="1">
                    <mxGeometry x="220" y="40" width="200" height="115" as="geometry"/>
                </mxCell>
                <mxCell id="71" value="+ CreateUser(email: string): void" style="text;html=1;strokeColor=none;fillColor=none;align=center;verticalAlign=middle;spacingLeft=4;spacingRight=4;overflow=hidden;rotatable=0;points=[[0,0.5],[1,0.5]];portConstraint=eastwest;" parent="7" vertex="1">
                    <mxGeometry y="40" width="200" height="25" as="geometry"/>
                </mxCell>
                <mxCell id="75" value="+ DeleteUser(email: string): void" style="text;html=1;strokeColor=none;fillColor=none;align=center;verticalAlign=middle;spacingLeft=4;spacingRight=4;overflow=hidden;rotatable=0;points=[[0,0.5],[1,0.5]];portConstraint=eastwest;" parent="7" vertex="1">
                    <mxGeometry y="65" width="200" height="25" as="geometry"/>
                </mxCell>
                <mxCell id="162" value="+ NumberOfAddresses(): void" style="text;html=1;strokeColor=none;fillColor=none;align=center;verticalAlign=middle;spacingLeft=4;spacingRight=4;overflow=hidden;rotatable=0;points=[[0,0.5],[1,0.5]];portConstraint=eastwest;" vertex="1" parent="7">
                    <mxGeometry y="90" width="200" height="25" as="geometry"/>
                </mxCell>
                <mxCell id="25" value="Program" style="swimlane;fontStyle=0;align=center;verticalAlign=top;childLayout=stackLayout;horizontal=1;startSize=30;horizontalStack=0;resizeParent=1;resizeParentMax=0;resizeLast=0;collapsible=0;marginBottom=0;html=1;" parent="1" vertex="1">
                    <mxGeometry x="40" y="73.5" width="110" height="38" as="geometry"/>
                </mxCell>
                <mxCell id="30" value="" style="line;strokeWidth=1;fillColor=none;align=left;verticalAlign=middle;spacingTop=-1;spacingLeft=3;spacingRight=3;rotatable=0;labelPosition=right;points=[];portConstraint=eastwest;" parent="25" vertex="1">
                    <mxGeometry y="30" width="110" height="8" as="geometry"/>
                </mxCell>
                <mxCell id="36" value="" style="endArrow=open;startArrow=none;endFill=0;startFill=0;endSize=8;html=1;verticalAlign=bottom;labelBackgroundColor=none;strokeWidth=2;sketch=0;exitX=1;exitY=0.5;exitDx=0;exitDy=0;entryX=0;entryY=0.5;entryDx=0;entryDy=0;" parent="1" source="25" target="71" edge="1">
                    <mxGeometry width="160" relative="1" as="geometry">
                        <mxPoint x="170" y="90" as="sourcePoint"/>
                        <mxPoint x="220" y="92.5" as="targetPoint"/>
                    </mxGeometry>
                </mxCell>
                <mxCell id="77" value="&lt;span style=&quot;font-weight: 400;&quot;&gt;«static»&lt;/span&gt;&lt;span style=&quot;font-weight: 400;&quot;&gt;&lt;br&gt;EmailNotificationService&lt;/span&gt;" style="swimlane;fontStyle=1;align=center;verticalAlign=middle;childLayout=stackLayout;horizontal=1;startSize=40;horizontalStack=0;resizeParent=1;resizeParentMax=0;resizeLast=0;collapsible=0;marginBottom=0;html=1;" parent="1" vertex="1">
                    <mxGeometry x="490" y="210" width="240" height="65" as="geometry"/>
                </mxCell>
                <mxCell id="138" value="+ SendEmail(to: string, string subject): void" style="text;html=1;strokeColor=none;fillColor=none;align=center;verticalAlign=middle;spacingLeft=4;spacingRight=4;overflow=hidden;rotatable=0;points=[[0,0.5],[1,0.5]];portConstraint=eastwest;" parent="77" vertex="1">
                    <mxGeometry y="40" width="240" height="25" as="geometry"/>
                </mxCell>
                <mxCell id="87" value="" style="endArrow=none;startArrow=diamondThin;endFill=0;startFill=0;html=1;verticalAlign=bottom;labelBackgroundColor=none;strokeWidth=2;startSize=8;endSize=8;entryX=0.5;entryY=0;entryDx=0;entryDy=0;" parent="1" target="146" edge="1">
                    <mxGeometry width="160" relative="1" as="geometry">
                        <mxPoint x="320" y="350" as="sourcePoint"/>
                        <mxPoint x="450" y="93" as="targetPoint"/>
                        <Array as="points"/>
                    </mxGeometry>
                </mxCell>
                <mxCell id="125" value="" style="endArrow=block;startArrow=none;endFill=0;startFill=0;endSize=8;html=1;verticalAlign=bottom;dashed=1;labelBackgroundColor=none;exitX=0.5;exitY=0;exitDx=0;exitDy=0;strokeWidth=2;" parent="1" source="126" edge="1">
                    <mxGeometry width="160" relative="1" as="geometry">
                        <mxPoint x="448.09000000000003" y="213.5" as="sourcePoint"/>
                        <mxPoint x="320" y="160" as="targetPoint"/>
                        <Array as="points"/>
                    </mxGeometry>
                </mxCell>
                <mxCell id="126" value="&lt;span style=&quot;font-weight: 400;&quot;&gt;UserService&lt;/span&gt;" style="swimlane;fontStyle=1;align=center;verticalAlign=middle;childLayout=stackLayout;horizontal=1;startSize=30;horizontalStack=0;resizeParent=1;resizeParentMax=0;resizeLast=0;collapsible=0;marginBottom=0;html=1;" parent="1" vertex="1">
                    <mxGeometry x="220" y="210" width="200" height="138" as="geometry"/>
                </mxCell>
                <mxCell id="169" value="- _userRepository: UserRepository" style="text;html=1;strokeColor=none;fillColor=none;align=center;verticalAlign=middle;spacingLeft=4;spacingRight=4;overflow=hidden;rotatable=0;points=[[0,0.5],[1,0.5]];portConstraint=eastwest;" vertex="1" parent="126">
                    <mxGeometry y="30" width="200" height="25" as="geometry"/>
                </mxCell>
                <mxCell id="170" value="" style="line;strokeWidth=1;fillColor=none;align=left;verticalAlign=middle;spacingTop=-1;spacingLeft=3;spacingRight=3;rotatable=0;labelPosition=right;points=[];portConstraint=eastwest;" vertex="1" parent="126">
                    <mxGeometry y="55" width="200" height="8" as="geometry"/>
                </mxCell>
                <mxCell id="163" value="+ CreateUser(email: string): void" style="text;html=1;strokeColor=none;fillColor=none;align=center;verticalAlign=middle;spacingLeft=4;spacingRight=4;overflow=hidden;rotatable=0;points=[[0,0.5],[1,0.5]];portConstraint=eastwest;" vertex="1" parent="126">
                    <mxGeometry y="63" width="200" height="25" as="geometry"/>
                </mxCell>
                <mxCell id="165" value="+ NumberOfAddresses(): void" style="text;html=1;strokeColor=none;fillColor=none;align=center;verticalAlign=middle;spacingLeft=4;spacingRight=4;overflow=hidden;rotatable=0;points=[[0,0.5],[1,0.5]];portConstraint=eastwest;" vertex="1" parent="126">
                    <mxGeometry y="88" width="200" height="25" as="geometry"/>
                </mxCell>
                <mxCell id="164" value="+ DeleteUser(email: string): void" style="text;html=1;strokeColor=none;fillColor=none;align=center;verticalAlign=middle;spacingLeft=4;spacingRight=4;overflow=hidden;rotatable=0;points=[[0,0.5],[1,0.5]];portConstraint=eastwest;" vertex="1" parent="126">
                    <mxGeometry y="113" width="200" height="25" as="geometry"/>
                </mxCell>
                <mxCell id="146" value="&lt;span style=&quot;font-weight: 400;&quot;&gt;UserRepository&lt;/span&gt;" style="swimlane;fontStyle=1;align=center;verticalAlign=middle;childLayout=stackLayout;horizontal=1;startSize=30;horizontalStack=0;resizeParent=1;resizeParentMax=0;resizeLast=0;collapsible=0;marginBottom=0;html=1;" parent="1" vertex="1">
                    <mxGeometry x="220" y="390" width="200" height="163" as="geometry"/>
                </mxCell>
                <mxCell id="171" value="- _users: List&amp;lt;string&amp;gt;" style="text;html=1;strokeColor=none;fillColor=none;align=center;verticalAlign=middle;spacingLeft=4;spacingRight=4;overflow=hidden;rotatable=0;points=[[0,0.5],[1,0.5]];portConstraint=eastwest;" vertex="1" parent="146">
                    <mxGeometry y="30" width="200" height="25" as="geometry"/>
                </mxCell>
                <mxCell id="176" value="+ Users: List&amp;lt;string&amp;gt;" style="text;html=1;strokeColor=none;fillColor=none;align=center;verticalAlign=middle;spacingLeft=4;spacingRight=4;overflow=hidden;rotatable=0;points=[[0,0.5],[1,0.5]];portConstraint=eastwest;" vertex="1" parent="146">
                    <mxGeometry y="55" width="200" height="25" as="geometry"/>
                </mxCell>
                <mxCell id="172" value="" style="line;strokeWidth=1;fillColor=none;align=left;verticalAlign=middle;spacingTop=-1;spacingLeft=3;spacingRight=3;rotatable=0;labelPosition=right;points=[];portConstraint=eastwest;" vertex="1" parent="146">
                    <mxGeometry y="80" width="200" height="8" as="geometry"/>
                </mxCell>
                <mxCell id="173" value="+ IsEmailFree(email: string): bool" style="text;html=1;strokeColor=none;fillColor=none;align=center;verticalAlign=middle;spacingLeft=4;spacingRight=4;overflow=hidden;rotatable=0;points=[[0,0.5],[1,0.5]];portConstraint=eastwest;" vertex="1" parent="146">
                    <mxGeometry y="88" width="200" height="25" as="geometry"/>
                </mxCell>
                <mxCell id="174" value="+ AddUser(email: string): void" style="text;html=1;strokeColor=none;fillColor=none;align=center;verticalAlign=middle;spacingLeft=4;spacingRight=4;overflow=hidden;rotatable=0;points=[[0,0.5],[1,0.5]];portConstraint=eastwest;" vertex="1" parent="146">
                    <mxGeometry y="113" width="200" height="25" as="geometry"/>
                </mxCell>
                <mxCell id="175" value="+ RemoveUser(email: string): void" style="text;html=1;strokeColor=none;fillColor=none;align=center;verticalAlign=middle;spacingLeft=4;spacingRight=4;overflow=hidden;rotatable=0;points=[[0,0.5],[1,0.5]];portConstraint=eastwest;" vertex="1" parent="146">
                    <mxGeometry y="138" width="200" height="25" as="geometry"/>
                </mxCell>
                <mxCell id="158" value="&lt;span style=&quot;font-weight: 400;&quot;&gt;«static»&lt;/span&gt;&lt;span style=&quot;font-weight: 400;&quot;&gt;&lt;br&gt;EmailValidator&lt;br&gt;&lt;/span&gt;" style="swimlane;fontStyle=1;align=center;verticalAlign=middle;childLayout=stackLayout;horizontal=1;startSize=38;horizontalStack=0;resizeParent=1;resizeParentMax=0;resizeLast=0;collapsible=0;marginBottom=0;html=1;" parent="1" vertex="1">
                    <mxGeometry x="490" y="298" width="200" height="63" as="geometry"/>
                </mxCell>
                <mxCell id="159" value="+ IsValidEmail(name: string): bool" style="text;html=1;strokeColor=none;fillColor=none;align=center;verticalAlign=middle;spacingLeft=4;spacingRight=4;overflow=hidden;rotatable=0;points=[[0,0.5],[1,0.5]];portConstraint=eastwest;" parent="158" vertex="1">
                    <mxGeometry y="38" width="200" height="25" as="geometry"/>
                </mxCell>
                <mxCell id="178" value="" style="endArrow=open;startArrow=none;endFill=0;startFill=0;endSize=8;html=1;verticalAlign=bottom;labelBackgroundColor=none;strokeWidth=2;exitX=1;exitY=0.5;exitDx=0;exitDy=0;entryX=0;entryY=0.25;entryDx=0;entryDy=0;" edge="1" parent="1" source="165" target="158">
                    <mxGeometry width="160" relative="1" as="geometry">
                        <mxPoint x="499.03999999999996" y="304.5" as="sourcePoint"/>
                        <mxPoint x="460" y="290" as="targetPoint"/>
                    </mxGeometry>
                </mxCell>
                <mxCell id="177" value="" style="endArrow=open;startArrow=none;endFill=0;startFill=0;endSize=8;html=1;verticalAlign=bottom;labelBackgroundColor=none;strokeWidth=2;exitX=1;exitY=0.5;exitDx=0;exitDy=0;entryX=0;entryY=0.5;entryDx=0;entryDy=0;" edge="1" parent="1" source="169" target="77">
                    <mxGeometry width="160" relative="1" as="geometry">
                        <mxPoint x="480" y="260" as="sourcePoint"/>
                        <mxPoint x="640" y="260" as="targetPoint"/>
                    </mxGeometry>
                </mxCell>
            </root>
        </mxGraphModel>
    </diagram>
</mxfile>